<svg width="26" height="35" viewBox="0 0 26 35" fill="none" xmlns="http://www.w3.org/2000/svg">
<g clip-path="url(#clip0_31_64)">
<path d="M26 8.61108L17.3334 0H2.88888C1.2934 0 0 1.28511 0 2.87037V31.5741C0 33.1593 1.2934 34.4444 2.88888 34.4444H23.1111C24.7066 34.4444 26 33.1593 26 31.5741V8.61108Z" fill="#E73841"/>
<path d="M20.2222 8.61108C19.4358 8.61108 18.7247 8.29671 18.2038 7.79022L26 15.5365V8.61108H20.2222Z" fill="url(#paint0_linear_31_64)"/>
<path opacity="0.1" d="M23.1111 34.0857H2.88888C1.29342 34.0857 0 32.8005 0 31.2153V31.5741C0 33.1594 1.29342 34.4444 2.88888 34.4444H23.1111C24.7065 34.4444 26 33.1594 26 31.5741V31.2153C26 32.8005 24.7065 34.0857 23.1111 34.0857Z" fill="white"/>
<path d="M17.3334 0V5.74074C17.3334 7.326 18.6267 8.61108 20.2222 8.61108H26L17.3334 0Z" fill="#E27D89"/>
<path opacity="0.1" d="M20.2222 8.25227C18.6267 8.25227 17.3334 6.96714 17.3334 5.3819V5.7407C17.3334 7.32593 18.6267 8.61105 20.2222 8.61105H26L25.6389 8.25227H20.2222Z" fill="white"/>
<path d="M18.0556 15.7871H7.94442C7.54555 15.7871 7.2222 16.1084 7.2222 16.5047C7.2222 16.9009 7.54555 17.2223 7.94443 17.2223H18.0556C18.4544 17.2223 18.7778 16.9009 18.7778 16.5047C18.7778 16.1084 18.4544 15.7871 18.0556 15.7871Z" fill="white"/>
<path d="M18.0556 18.6574H7.94442C7.54555 18.6574 7.2222 18.9787 7.2222 19.375C7.2222 19.7712 7.54555 20.0926 7.94443 20.0926H18.0556C18.4544 20.0926 18.7778 19.7712 18.7778 19.375C18.7778 18.9787 18.4544 18.6574 18.0556 18.6574Z" fill="white"/>
<path d="M18.0556 21.5278H7.94442C7.54555 21.5278 7.2222 21.849 7.2222 22.2454C7.2222 22.6417 7.54555 22.9629 7.94443 22.9629H18.0556C18.4544 22.9629 18.7778 22.6417 18.7778 22.2454C18.7778 21.849 18.4544 21.5278 18.0556 21.5278Z" fill="white"/>
<path d="M13 24.3982H7.94442C7.54555 24.3982 7.2222 24.7194 7.2222 25.1158C7.2222 25.5121 7.54555 25.8334 7.94442 25.8334H13C13.3989 25.8334 13.7222 25.5121 13.7222 25.1158C13.7222 24.7194 13.3989 24.3982 13 24.3982Z" fill="white"/>
<path opacity="0.2" d="M17.3334 0H2.88888C1.29342 0 0 1.28504 0 2.87037V3.22917C0 1.64384 1.29342 0.358797 2.88888 0.358797H17.3334" fill="white"/>
</g>
<defs>
<linearGradient id="paint0_linear_31_64" x1="19.9463" y1="6.05887" x2="27.6924" y2="13.855" gradientUnits="userSpaceOnUse">
<stop stop-opacity="0.1"/>
<stop offset="1" stop-opacity="0"/>
</linearGradient>
<clipPath id="clip0_31_64">
<rect width="26" height="35" fill="white"/>
</clipPath>
</defs>
</svg>
