<svg xmlns="http://www.w3.org/2000/svg" viewBox="0 0 144.05 196"><defs><style>.cls-1,.cls-3{fill:#e62f2a;}.cls-2{fill:#a9a9a9;}.cls-3{opacity:0.9;}.cls-4{fill:#e27d89;}</style></defs><g id="Calque_2" data-name="Calque 2"><g id="Calque_1-2" data-name="Calque 1"><path class="cls-1" d="M47,155.17H57.31v5.4H40.42V135.84H47Z"/><path class="cls-1" d="M81.77,145.82c0,5.49-4.55,10-10.74,10H65.48v4.8H58.91V146.48c0-6.27,5.52-10.64,10.13-10.64h2C77.22,135.84,81.77,140.3,81.77,145.82Zm-7.09,0a4.54,4.54,0,0,0-4.52-4.55c-2.87,0-4.68,2.35-4.68,5.21v3.87l4.68,0A4.55,4.55,0,0,0,74.68,145.82Z"/><path class="cls-1" d="M98,135.84h6.58v24.73H98v-15.5h-8v15.5H83.49V135.84h6.58v3.83h8Z"/><path class="cls-2" d="M41.11,181.44A14.54,14.54,0,0,1,26.55,196h-4.9c-8.17,0-10.9-4.05-11.08-9.16v-20h16A14.56,14.56,0,0,1,41.11,181.44Zm-8.31,0a8.2,8.2,0,0,0-7.74-8.16H18.31v13a3.36,3.36,0,0,0,3.34,3.37v0h3.41A8.18,8.18,0,0,0,32.8,181.44Z"/><path class="cls-2" d="M75.37,181.44A14.56,14.56,0,0,1,60.81,196H57.55a14.56,14.56,0,1,1,0-29.12h3.26A14.58,14.58,0,0,1,75.37,181.44Zm-7.7,0a8.17,8.17,0,1,0-8.17,8.2A8.16,8.16,0,0,0,67.67,181.44Z"/><path class="cls-2" d="M102,182.79l7.28,2.52a14.5,14.5,0,0,1-14,10.69H92a14.56,14.56,0,1,1,0-29.12h3.26A14.6,14.6,0,0,1,109,176.54L101.75,179a8.2,8.2,0,1,0,.25,3.76Z"/><path class="cls-2" d="M135.63,186.44l0,1.1c-.18,6.46-5.61,8.65-12.85,8.45l-12.1-.34.18-6.36,13.88.39a2.5,2.5,0,1,0,.14-5l-4.23-.12c-7.41-.21-9.55-4.92-9.46-8.12l0-1.06c.18-6.49,5.6-8.69,12.84-8.48l10.05.28-.18,6.39-11.82-.33a2.48,2.48,0,0,0-.14,5l4.22.12C133.58,178.53,135.72,183.24,135.63,186.44Z"/><path class="cls-1" d="M37.08,135.84H35.6l-4.28,1.75A12.42,12.42,0,0,0,25,135.84H22.21A12.37,12.37,0,0,0,9.85,147.9h0v.18h0a12.38,12.38,0,0,0,12.36,12.07H25a12.42,12.42,0,0,0,6.33-1.75l4.28,1.75h1.48V135.84ZM23.87,154.72A6.73,6.73,0,1,1,30.8,148,6.93,6.93,0,0,1,23.87,154.72Z"/><path class="cls-1" d="M134.11,135.84h-1.48l-4.28,1.75a12.45,12.45,0,0,0-6.34-1.75h-2.77a12.37,12.37,0,0,0-12.36,12.06h0a.41.41,0,0,1,0,.18h0a12.38,12.38,0,0,0,12.36,12.07H122a12.45,12.45,0,0,0,6.34-1.75l4.28,1.75h1.48V135.84ZM120.9,154.72a6.73,6.73,0,1,1,6.92-6.73A6.93,6.93,0,0,1,120.9,154.72Z"/><path class="cls-3" d="M53,42.24a.61.61,0,0,1,.07.1c.05.08.1.14.14.21Zm0,0a.61.61,0,0,1,.07.1c.05.08.1.14.14.21Zm0,0a.61.61,0,0,1,.07.1c.05.08.1.14.14.21Zm0,0a.61.61,0,0,1,.07.1c.05.08.1.14.14.21Zm0,0a.61.61,0,0,1,.07.1c.05.08.1.14.14.21Zm0,0a.61.61,0,0,1,.07.1c.05.08.1.14.14.21Zm0,0a.61.61,0,0,1,.07.1c.05.08.1.14.14.21Zm0,0a.61.61,0,0,1,.07.1c.05.08.1.14.14.21Zm0,0a.61.61,0,0,1,.07.1c.05.08.1.14.14.21Zm72,42.05c-.75-1.28-1.78-3.05-2.36-4.24-3.8-7.81-5.51-14.85-7-19.58-.82-2.66-1.58-4.52-1.21-5.18C119,47.35,126,34.13,132.14,22.47,138.56,10.3,144.05.21,144.05.21L120.56,0a.66.66,0,0,0-.62.41c-.61,1.51-2.8,6.83-4.6,11.28a96,96,0,0,1-9.21,17.59,75.3,75.3,0,0,0-3.84-8.52,62.78,62.78,0,0,0-4.21-6.92,42.79,42.79,0,0,0-7.73-7.53,25.71,25.71,0,0,0-4.29-2.76,24.78,24.78,0,0,0-3.13-1.31A34.52,34.52,0,0,0,78.78,1,26.38,26.38,0,0,0,74.52.3c-1.63-.13-5.63,0-5.63,0S64.81,0,55.51,2.53c-.8.22-1.6.46-2.39.72s-1.45.49-2.18.75c-2.35.86-4.67,1.88-6.9,3l-.19.1c-.44.21-.88.42-1.3.64-1,.52-2,1.06-3,1.6-3.14,1.74-6,3.51-8.2,5.06h0c-.71.5-1.38,1-2,1.42l0,0c-.45.32-.85.64-1.21.92A103.14,103.14,0,0,0,15.71,28.87a60.63,60.63,0,0,0-4.28,5.47c-1.63,2.83-6,9.78-8,15.46A65.92,65.92,0,0,0,1,59c-.11.59-.3,2.06-.41,2.77a20.66,20.66,0,0,0-.2,2.37A67.73,67.73,0,0,0,.19,75.49,33.69,33.69,0,0,0,2.24,85.62a36.39,36.39,0,0,0,3.38,7h0c.45.72.93,1.41,1.43,2.06a37.88,37.88,0,0,0,6.38,6.47l.07,0c.48.4,1,.73,1.39,1l0,0,1.41.91a.24.24,0,0,0,.12.07l.21.13.28.17.15.07.36.2.13.07c.65.34,1.39.69,1.89.93s.84.38,1.3.56l.93.37h0a34.65,34.65,0,0,0,4.76,1.44c2.14.49,4.36.88,6.49,1.16l.29,0c1.7.23,3.35.39,4.84.48h.1l.74,0h0c.77,0,1.48.06,2.14.06h1.35A59.19,59.19,0,0,0,53,107.79c6-1,15.88-6.73,23.13-11.55S97.33,77,97.33,77a37.61,37.61,0,0,0,4.1,10c3.85,7,5.94,8.82,9.46,12.08a24.33,24.33,0,0,0,8.39,5.3c2.44,1,6.31,1.76,13.11,1.82,8.14.06,11.34-3.53,11.34-3.53S131.76,95.85,125,84.29ZM90.66,52.12,80.88,65.89S70,79.36,68.58,80.66,63.68,86.57,57.63,90c-4.53,2.59-7.12,3.64-10.94,4.16A23.75,23.75,0,0,1,37,93.7a21.11,21.11,0,0,1-7.09-3.51A22.37,22.37,0,0,1,27.54,88l-.23-.26a11.7,11.7,0,0,1-2.26-3.42c-.35-.88-.65-1.6-.9-2.23a25,25,0,0,1-.86-2.48l2.14-2c8.33-7.63,12.19-11,13.65-12.29l3.35-3,.06-.06L46.18,59l.13-.11c4.29-3.9,5.44-5,8.08-7.31l0,0L55,51a2.85,2.85,0,0,0,.41-.44,3.86,3.86,0,0,0,.57-1h0a3.65,3.65,0,0,0,.14-2.24v0a0,0,0,0,0,0,0h0s0,0,0,0c-.09-.19-.4-.83-.82-1.6l0,0c-.37-.58-.73-1.15-1.09-1.7a.36.36,0,0,1-.07-.1,14.71,14.71,0,0,1-1-1.51c.05.08.1.14.14.21L53,42.24c0-.05,0-.09-.07-.13l-2.4-3.62C49.53,37,49,36.19,48.19,35c-.5-.77-1-1.55-1.5-2.36a.25.25,0,0,0,0-.07c-1.18-1.91-2.43-4-4.24-6.72.74-.76,1.48-1.5,2.26-2.22.43-.41.84-.78,1.21-1.11A39,39,0,0,1,50.39,19a41.8,41.8,0,0,1,6.54-3.66A26.33,26.33,0,0,1,68.31,13c3.74.23,7.67,1.09,9.78,3.18,2.56,2.53,5,5.78,7,12.64s3.06,10.35,3.06,10.35L90.89,51A1.44,1.44,0,0,1,90.66,52.12ZM53,42.24a.61.61,0,0,1,.07.1c.05.08.1.14.14.21Z"/><path class="cls-4" d="M56.07,47.34v0c-.68-.64-2.32-2.19-5.88-5.58-4.82-4.56-10.58-9.5-12.22-16.9A23.34,23.34,0,0,1,38,15a14.11,14.11,0,0,1,4.11-6.58,7.31,7.31,0,0,1,1.77-1.38L44,7c2.23-1.08,4.55-2.1,6.9-3,.73-.26,1.45-.51,2.18-.75a72,72,0,0,0-4.46,6A22,22,0,0,0,46.19,15a24.94,24.94,0,0,0-.31,7.5,43.54,43.54,0,0,0,2.78,10.59,60,60,0,0,0,4.25,9s.05.08.07.13a.61.61,0,0,1,.07.1,14.71,14.71,0,0,0,1,1.51.36.36,0,0,0,.07.1c.36.55.72,1.12,1.09,1.7l0,0c.42.77.73,1.41.82,1.6,0,0,0,0,0,0h0A0,0,0,0,1,56.07,47.34Z"/><path class="cls-4" d="M55.93,49.61a3.86,3.86,0,0,1-.57,1A2.85,2.85,0,0,1,55,51l-.51.46,0,0C51.75,53.9,50.6,55,46.31,58.85l-.13.11c-1.29,1.09-2.58,2.23-3.69,3.34l-.06.06C38.32,66.46,32.12,72,28.92,81.62a26.9,26.9,0,0,0-1.61,6.13,3.52,3.52,0,0,0,0,.45,20.23,20.23,0,0,0,.82,6.58c2,7.35,11.07,12.53,14.39,14.21H41.14c-.66,0-1.37,0-2.14-.06h0c-.25,0-.51,0-.74,0h-.1c-1.49-.09-3.14-.25-4.84-.48l-.29,0c-5.25-.91-14.63-5.35-16.4-13.6a24.9,24.9,0,0,1,1.65-15.62c1.64-3.29,3.29-7.4,11.51-14A124.37,124.37,0,0,1,47,53.67C48.57,52.77,55,50,55.93,49.61Z"/></g></g></svg>