<svg xmlns="http://www.w3.org/2000/svg" viewBox="0 0 412 147"><defs><style>.cls-1{fill:none;}.cls-2{fill:#fff;}.cls-3{fill:#d1d0d1;}</style></defs><g id="Calque_2" data-name="Calque 2"><g id="Calque_1-2" data-name="Calque 1"><rect class="cls-1" width="412" height="147"/><path class="cls-2" d="M240.35,52.61h18.14V62.1h-29.7V18.62h11.56Z"/><path class="cls-2" d="M301.49,36.17c0,9.65-8,17.5-18.88,17.5h-9.75V62.1H261.3V37.34c0-11,9.7-18.72,17.81-18.72h3.5C293.49,18.62,301.49,26.47,301.49,36.17Zm-12.46,0a8,8,0,0,0-7.95-8c-5,.06-8.22,4.14-8.22,9.18v6.79l8.22,0A8,8,0,0,0,289,36.17Z"/><path class="cls-2" d="M330.08,18.62h11.56V62.1H330.08V34.85h-14V62.1H304.52V18.62h11.56v6.73h14Z"/><path class="cls-2" d="M230,98.8a25.54,25.54,0,0,1-25.59,25.59h-8.62c-14.35,0-19.16-7.12-19.47-16.11V73.2h28.09A25.59,25.59,0,0,1,230,98.8Zm-14.61,0a14.43,14.43,0,0,0-13.61-14.36H189.92v22.85a5.92,5.92,0,0,0,5.87,5.92v-.06h6A14.38,14.38,0,0,0,215.39,98.8Z"/><path class="cls-2" d="M290.24,98.8a25.59,25.59,0,0,1-25.6,25.59H258.9a25.6,25.6,0,0,1,0-51.19h5.74A25.64,25.64,0,0,1,290.24,98.8Zm-13.55,0a14.36,14.36,0,1,0-14.35,14.41A14.36,14.36,0,0,0,276.69,98.8Z"/><path class="cls-2" d="M337.06,101.17l12.79,4.43a25.49,25.49,0,0,1-24.66,18.79h-5.74a25.6,25.6,0,0,1,0-51.19h5.74a25.66,25.66,0,0,1,24.1,17l-12.67,4.37a14.42,14.42,0,1,0,.44,6.62Z"/><path class="cls-2" d="M396.18,107.58l-.05,1.94c-.32,11.35-9.86,15.21-22.59,14.85l-21.28-.6.32-11.17,24.4.69a4.4,4.4,0,1,0,.24-8.8l-7.42-.21c-13-.37-16.81-8.65-16.65-14.27l.05-1.87c.32-11.42,9.86-15.27,22.59-14.92l17.66.5L393.13,85l-20.77-.58a4.37,4.37,0,1,0-.25,8.73l7.43.21C392.58,93.68,396.34,102,396.18,107.58Z"/><path class="cls-2" d="M222.92,18.62h-2.6l-7.53,3.08a21.88,21.88,0,0,0-11.13-3.08h-4.88a21.75,21.75,0,0,0-21.72,21.21h0a.92.92,0,0,1,0,.16.86.86,0,0,1,0,.16h0a21.75,21.75,0,0,0,21.72,21.21h4.88a21.87,21.87,0,0,0,11.13-3.07l7.53,3.07h2.6V18.62Zm-23.23,33.2A12.18,12.18,0,0,1,187.52,40a12.18,12.18,0,0,1,24.35,0A12.18,12.18,0,0,1,199.69,51.82Z"/><path class="cls-2" d="M393.5,18.62h-2.6l-7.53,3.08a21.88,21.88,0,0,0-11.13-3.08h-4.88a21.76,21.76,0,0,0-21.73,21.21h0c0,.06,0,.11,0,.16s0,.11,0,.16h0a21.76,21.76,0,0,0,21.73,21.21h4.88a21.87,21.87,0,0,0,11.13-3.07l7.53,3.07h2.6V18.62Zm-23.23,33.2A12.18,12.18,0,0,1,358.1,40a12.18,12.18,0,0,1,24.35,0A12.19,12.19,0,0,1,370.27,51.82Z"/><path class="cls-2" d="M69.49,59.9l.07.1c0,.08.09.14.13.21Zm0,0,.07.1c0,.08.09.14.13.21Zm0,0,.07.1c0,.08.09.14.13.21Zm0,0,.07.1c0,.08.09.14.13.21Zm0,0,.07.1c0,.08.09.14.13.21Zm0,0,.07.1c0,.08.09.14.13.21Zm0,0,.07.1c0,.08.09.14.13.21Zm0,0,.07.1c0,.08.09.14.13.21Zm0,0,.07.1c0,.08.09.14.13.21Zm71.8,41.93c-.75-1.28-1.78-3-2.35-4.23-3.79-7.79-5.5-14.8-7-19.53-.82-2.65-1.57-4.5-1.2-5.16,4.49-7.91,11.51-21.09,17.63-32.72C154.82,28.06,160.29,18,160.29,18l-23.42-.22a.66.66,0,0,0-.62.41c-.61,1.51-2.79,6.81-4.59,11.25A95.25,95.25,0,0,1,122.48,47a73.34,73.34,0,0,0-3.83-8.49,62.57,62.57,0,0,0-4.2-6.91,43.2,43.2,0,0,0-7.7-7.51,25.68,25.68,0,0,0-4.28-2.74A24.61,24.61,0,0,0,99.35,20a33.93,33.93,0,0,0-4.14-1.27A26,26,0,0,0,91,18.08c-1.62-.12-5.61,0-5.61,0S81.28,17.78,72,20.31c-.8.21-1.59.45-2.38.71s-1.45.5-2.17.76a73.69,73.69,0,0,0-6.88,2.94l-.2.1-1.3.64c-1,.52-2,1.06-3,1.6-3.13,1.73-6,3.5-8.18,5,0,0,0,0,0,0q-1.08.74-2,1.41h0c-.45.33-.85.64-1.21.93a102.45,102.45,0,0,0-12.34,12.1A59.88,59.88,0,0,0,28.06,52c-1.62,2.82-6,9.75-8,15.42a64.32,64.32,0,0,0-2.45,9.16c-.11.59-.3,2.05-.41,2.76A20.56,20.56,0,0,0,17,81.72a66,66,0,0,0-.16,11.33,33.45,33.45,0,0,0,2,10.1,37.12,37.12,0,0,0,3.36,7h0a24,24,0,0,0,1.43,2,34.25,34.25,0,0,0,3.46,3.9,37.3,37.3,0,0,0,2.9,2.56l.06,0c.49.39.95.73,1.39,1l0,0,1.4.91a.57.57,0,0,0,.13.08l.21.12c.08.06.19.11.28.17l.15.07.36.2.12.07c.66.33,1.38.69,1.88.92s.85.38,1.3.57l.93.36h0a36,36,0,0,0,4.75,1.43c2.13.49,4.35.87,6.47,1.15l.29,0c1.69.22,3.33.39,4.83.48h.09l.74,0h0c.76,0,1.48,0,2.13,0H59a59.88,59.88,0,0,0,10.5-1.2c6-1,15.83-6.72,23.06-11.52s21.12-19.2,21.12-19.2a37.54,37.54,0,0,0,4.09,9.93c3.84,6.94,5.92,8.8,9.43,12a24.2,24.2,0,0,0,8.36,5.29c2.44,1,6.3,1.75,13.07,1.81,8.12.06,11.31-3.52,11.31-3.52S148,113.35,141.29,101.83ZM107.06,69.75,97.31,83.48S86.42,96.91,85,98.21s-4.88,5.89-10.92,9.34c-4.51,2.58-7.1,3.63-10.9,4.15a23.83,23.83,0,0,1-9.64-.49,20.93,20.93,0,0,1-7.06-3.5,22.37,22.37,0,0,1-2.4-2.18l-.23-.25a11.57,11.57,0,0,1-2.24-3.41c-.36-.88-.66-1.6-.91-2.23-.38-1-.65-1.74-.86-2.47L42,95.23C50.33,87.62,54.17,84.29,55.63,83L59,80,59,79.9c1.45-1.3,2.65-2.39,3.68-3.33l.13-.11c4.28-3.89,5.42-4.94,8-7.28l0-.05c.16-.15.33-.31.51-.46a3.39,3.39,0,0,0,.41-.44,3.59,3.59,0,0,0,.57-1h0A3.65,3.65,0,0,0,72.57,65h0v0h0v0c-.09-.19-.4-.84-.82-1.6l0,0-1.09-1.69a.53.53,0,0,1-.06-.1,15.9,15.9,0,0,1-1-1.51c0,.08.09.14.13.21l-.2-.31s0-.09-.07-.13c-.82-1.25-1.62-2.44-2.39-3.61l-2.32-3.48c-.5-.76-1-1.54-1.49-2.35a.25.25,0,0,0,0-.07c-1.18-1.91-2.43-4-4.23-6.71.73-.75,1.48-1.49,2.25-2.21l1.21-1.1a38.81,38.81,0,0,1,4.5-3.49,41.89,41.89,0,0,1,6.52-3.65,26.29,26.29,0,0,1,11.34-2.34c3.73.23,7.65,1.09,9.75,3.17,2.56,2.52,5,5.76,7,12.6s3,10.32,3,10.32l2.7,11.76A1.44,1.44,0,0,1,107.06,69.75ZM69.49,59.9l.07.1c0,.08.09.14.13.21Z"/><path class="cls-3" d="M72.57,65h0L66.7,59.44C61.9,54.89,56.16,50,54.52,42.6a23.41,23.41,0,0,1,0-9.84,14.12,14.12,0,0,1,4.1-6.56,7.57,7.57,0,0,1,1.76-1.38l.2-.1a73.69,73.69,0,0,1,6.88-2.94c.72-.26,1.44-.52,2.17-.76a71.79,71.79,0,0,0-4.45,6,21.45,21.45,0,0,0-2.46,5.74,24.8,24.8,0,0,0-.31,7.48,43.19,43.19,0,0,0,2.77,10.55,59.27,59.27,0,0,0,4.24,9s0,.08.07.13l.07.1a15.9,15.9,0,0,0,1,1.51.53.53,0,0,0,.06.1L71.7,63.3l0,0c.42.76.73,1.41.82,1.6v0h0Z"/><path class="cls-3" d="M72.43,67.25a3.59,3.59,0,0,1-.57,1,3.39,3.39,0,0,1-.41.44c-.18.15-.35.31-.51.46l0,.05c-2.63,2.34-3.77,3.39-8,7.28l-.13.11c-1.29,1.08-2.58,2.22-3.68,3.33L59,80c-4.1,4.09-10.28,9.63-13.47,19.21a26.63,26.63,0,0,0-1.61,6.11l0,.45a20.4,20.4,0,0,0,.82,6.56c2,7.33,11,12.48,14.35,14.17H57.68c-.65,0-1.37,0-2.13,0h0a6.34,6.34,0,0,0-.74,0h-.09c-1.5-.09-3.14-.26-4.83-.48l-.29,0c-5.24-.9-14.59-5.33-16.35-13.55a24.78,24.78,0,0,1,1.64-15.58c1.64-3.28,3.28-7.38,11.48-13.94A125.5,125.5,0,0,1,63.54,71.29C65.09,70.4,71.48,67.65,72.43,67.25Z"/></g></g></svg>