<svg xmlns="http://www.w3.org/2000/svg" viewBox="0 0 127.17 96.23"><defs><style>.cls-1{fill:#fff;}.cls-2{fill:#d1d0d1;}</style></defs><g id="Calque_2" data-name="Calque 2"><g id="Calque_1-2" data-name="Calque 1"><path class="cls-1" d="M46.77,37.29a.28.28,0,0,1,.06.09c0,.07.09.12.12.18Zm0,0a.28.28,0,0,1,.06.09c0,.07.09.12.12.18Zm0,0a.28.28,0,0,1,.06.09c0,.07.09.12.12.18Zm0,0a.28.28,0,0,1,.06.09c0,.07.09.12.12.18Zm0,0a.28.28,0,0,1,.06.09c0,.07.09.12.12.18Zm0,0a.28.28,0,0,1,.06.09c0,.07.09.12.12.18Zm0,0a.28.28,0,0,1,.06.09c0,.07.09.12.12.18Zm0,0a.28.28,0,0,1,.06.09c0,.07.09.12.12.18Zm0,0a.28.28,0,0,1,.06.09c0,.07.09.12.12.18Zm63.58,37.12c-.67-1.13-1.58-2.69-2.09-3.74-3.35-6.89-4.86-13.11-6.15-17.29-.73-2.34-1.4-4-1.07-4.57,4-7,10.19-18.68,15.61-29C122.32,9.1,127.17.19,127.17.19L106.43,0a.56.56,0,0,0-.54.36c-.55,1.33-2.48,6-4.07,10a84.12,84.12,0,0,1-8.13,15.53,65.26,65.26,0,0,0-3.39-7.52,54.6,54.6,0,0,0-3.72-6.11,37.77,37.77,0,0,0-6.82-6.65A21.6,21.6,0,0,0,76,3.14,24,24,0,0,0,73.21,2,28.9,28.9,0,0,0,69.55.86a23.45,23.45,0,0,0-3.76-.6c-1.44-.11-5,0-5,0S57.21,0,49,2.24c-.7.18-1.41.4-2.1.63s-1.29.43-1.93.67a65.52,65.52,0,0,0-6.09,2.6l-.17.09-1.15.57c-.92.45-1.81.93-2.67,1.41-2.77,1.53-5.26,3.1-7.24,4.47h0c-.64.44-1.22.86-1.75,1.25h0c-.39.29-.74.57-1.06.82A90.2,90.2,0,0,0,13.87,25.49a51.91,51.91,0,0,0-3.78,4.83C8.65,32.81,4.77,39,3,44A58.83,58.83,0,0,0,.84,52.07c-.1.53-.27,1.83-.36,2.45A18.08,18.08,0,0,0,.3,56.61a59.27,59.27,0,0,0-.13,10,29.64,29.64,0,0,0,1.81,9,32.23,32.23,0,0,0,3,6.2H5c.4.64.82,1.25,1.26,1.82A32.8,32.8,0,0,0,9.3,87.06a31.06,31.06,0,0,0,2.57,2.26.09.09,0,0,0,.06,0c.42.35.83.65,1.22.92l0,0,1.24.81a.39.39,0,0,0,.11.06l.19.11a2.07,2.07,0,0,0,.25.15l.13.07.32.17.1.06c.59.3,1.23.61,1.67.82l1.15.5.83.32h0a32.61,32.61,0,0,0,4.2,1.27c1.89.43,3.85.77,5.73,1l.25,0c1.5.19,3,.34,4.28.42h.08l.66,0s0,0,0,0c.68,0,1.31,0,1.89,0h1.19a52.27,52.27,0,0,0,9.3-1.06c5.32-.89,14-6,20.41-10.2s18.7-17,18.7-17a33.36,33.36,0,0,0,3.63,8.8c3.39,6.14,5.24,7.79,8.34,10.66a21.27,21.27,0,0,0,7.41,4.68c2.16.85,5.58,1.56,11.57,1.61,7.19.06,10-3.12,10-3.12S116.32,84.62,110.35,74.41ZM80,46,71.4,58.17s-9.64,11.89-10.86,13-4.32,5.21-9.67,8.27c-4,2.29-6.28,3.21-9.65,3.67a20.88,20.88,0,0,1-8.53-.43,18.65,18.65,0,0,1-6.26-3.1,20.06,20.06,0,0,1-2.12-1.93l-.2-.22a10.16,10.16,0,0,1-2-3c-.31-.78-.58-1.42-.8-2-.34-.89-.58-1.55-.76-2.19l1.89-1.72c7.36-6.74,10.76-9.69,12.05-10.85l3-2.67,0,0,3.26-3,.11-.1c3.79-3.44,4.8-4.37,7.13-6.45l.05,0,.45-.41a1.9,1.9,0,0,0,.36-.39,3,3,0,0,0,.51-.86h0a3.19,3.19,0,0,0,.12-2v0h0v0c-.08-.16-.35-.74-.73-1.41l0,0q-.48-.77-1-1.5l-.06-.08a14.91,14.91,0,0,1-.88-1.34c0,.07.09.12.12.18l-.18-.27-.06-.11C46,36.07,45.28,35,44.59,34L42.54,30.9c-.44-.68-.87-1.37-1.32-2.09l0,0c-1-1.7-2.15-3.58-3.74-5.94.65-.67,1.31-1.32,2-2,.39-.36.74-.69,1.08-1a33.66,33.66,0,0,1,4-3.09,36.88,36.88,0,0,1,5.77-3.23,23.33,23.33,0,0,1,10-2.08c3.31.21,6.78,1,8.64,2.81,2.26,2.24,4.42,5.11,6.22,11.16s2.69,9.14,2.69,9.14L80.24,45A1.28,1.28,0,0,1,80,46ZM46.77,37.29a.28.28,0,0,1,.06.09c0,.07.09.12.12.18Z"/><path class="cls-2" d="M49.5,41.79v0l-5.2-4.92C40.05,32.86,35,28.5,33.52,22a20.73,20.73,0,0,1,0-8.71,12.48,12.48,0,0,1,3.63-5.81,6.36,6.36,0,0,1,1.56-1.22l.17-.09A65.52,65.52,0,0,1,45,3.54c.64-.24,1.28-.46,1.93-.67A65.7,65.7,0,0,0,43,8.17a19.38,19.38,0,0,0-2.17,5.09,21.67,21.67,0,0,0-.27,6.62A38.77,38.77,0,0,0,43,29.23a53.79,53.79,0,0,0,3.76,8l.06.11a.28.28,0,0,1,.06.09,14.91,14.91,0,0,0,.88,1.34l.06.08q.48.73,1,1.5l0,0c.38.67.65,1.25.73,1.41v0h0Z"/><path class="cls-2" d="M49.38,43.8a3,3,0,0,1-.51.86,1.9,1.9,0,0,1-.36.39l-.45.41-.05,0c-2.33,2.08-3.34,3-7.13,6.45l-.11.1c-1.14,1-2.28,2-3.26,3l0,0c-3.63,3.62-9.11,8.53-11.93,17a23.29,23.29,0,0,0-1.42,5.41c0,.13,0,.27,0,.4a18,18,0,0,0,.72,5.8c1.78,6.49,9.78,11.06,12.71,12.55H36.32c-.58,0-1.21,0-1.89,0,0,0,0,0,0,0a5.07,5.07,0,0,0-.66,0h-.08c-1.32-.08-2.78-.23-4.28-.42l-.25,0c-4.64-.79-12.92-4.71-14.48-12a22,22,0,0,1,1.45-13.79C17.55,67,19,63.35,26.26,57.54A110.11,110.11,0,0,1,41.5,47.38C42.88,46.59,48.54,44.15,49.38,43.8Z"/></g></g></svg>